<?xml version="1.0" encoding="utf-8"?>
<!-- Generator: Adobe Illustrator 24.1.2, SVG Export Plug-In . SVG Version: 6.00 Build 0)  -->
<svg version="1.1" id="Layer_1" focusable="false" xmlns="http://www.w3.org/2000/svg" xmlns:xlink="http://www.w3.org/1999/xlink"
	 x="0px" y="0px" viewBox="0 0 448 512" style="enable-background:new 0 0 448 512;" xml:space="preserve">
<path d="M443,111H5c-2.8,0-5-2.2-5-5V86c0-2.8,2.2-5,5-5h438c2.8,0,5,2.2,5,5v20C448,108.8,445.8,111,443,111z"/>
<path d="M443,271H5c-2.8,0-5-2.2-5-5v-20c0-2.8,2.2-5,5-5h438c2.8,0,5,2.2,5,5v20C448,268.8,445.8,271,443,271z"/>
<path d="M443,431H5c-2.8,0-5-2.2-5-5v-20c0-2.8,2.2-5,5-5h438c2.8,0,5,2.2,5,5v20C448,428.8,445.8,431,443,431z"/>
</svg>
